<svg width="259" height="263" viewBox="0 0 259 263" fill="none" xmlns="http://www.w3.org/2000/svg">
<g filter="url(#filter0_d_237_325)">
<path d="M255 127.392C255 197.748 198.812 254.783 129.5 254.783C60.1883 254.783 4 197.748 4 127.392C4 57.0352 60.1883 0 129.5 0C198.812 0 255 57.0352 255 127.392ZM6.50999 127.392C6.50999 196.341 61.5745 252.235 129.5 252.235C197.426 252.235 252.49 196.341 252.49 127.392C252.49 58.4423 197.426 2.54783 129.5 2.54783C61.5745 2.54783 6.50999 58.4423 6.50999 127.392Z" fill="#E8E8F9"/>
</g>
<path d="M213.235 125.634C213.235 172.458 175.807 210.416 129.636 210.416C83.466 210.416 46.0375 172.458 46.0375 125.634C46.0375 78.811 83.466 40.8531 129.636 40.8531C175.807 40.8531 213.235 78.811 213.235 125.634ZM48.5454 125.634C48.5454 171.053 84.8511 207.872 129.636 207.872C174.422 207.872 210.727 171.053 210.727 125.634C210.727 80.2157 174.422 43.3966 129.636 43.3966C84.8511 43.3966 48.5454 80.2157 48.5454 125.634Z" fill="#E8E8F9"/>
<defs>
<filter id="filter0_d_237_325" x="0" y="0" width="259" height="262.783" filterUnits="userSpaceOnUse" color-interpolation-filters="sRGB">
<feFlood flood-opacity="0" result="BackgroundImageFix"/>
<feColorMatrix in="SourceAlpha" type="matrix" values="0 0 0 0 0 0 0 0 0 0 0 0 0 0 0 0 0 0 127 0" result="hardAlpha"/>
<feOffset dy="4"/>
<feGaussianBlur stdDeviation="2"/>
<feComposite in2="hardAlpha" operator="out"/>
<feColorMatrix type="matrix" values="0 0 0 0 0 0 0 0 0 0 0 0 0 0 0 0 0 0 0.25 0"/>
<feBlend mode="normal" in2="BackgroundImageFix" result="effect1_dropShadow_237_325"/>
<feBlend mode="normal" in="SourceGraphic" in2="effect1_dropShadow_237_325" result="shape"/>
</filter>
</defs>
</svg>
