<svg width="34" height="34" viewBox="0 0 34 34" fill="none" xmlns="http://www.w3.org/2000/svg">
<g filter="url(#filter0_d_301_114)">
<path d="M28.2561 6.63695C27.0936 4.5952 25.5168 2.97875 23.5252 1.78723C21.5332 0.59564 19.3587 0 16.9999 0C14.6414 0 12.4661 0.595823 10.4746 1.78723C8.4828 2.97869 6.906 4.5952 5.74351 6.63695C4.58119 8.67863 4 10.9082 4 13.3255C4 16.2292 4.82646 18.8404 6.47979 21.1595C8.13294 23.4789 10.2686 25.0838 12.8865 25.9744C13.1912 26.0324 13.4168 25.9916 13.5635 25.8531C13.7102 25.7145 13.7835 25.5408 13.7835 25.3328C13.7835 25.2981 13.7806 24.9859 13.775 24.3959C13.7692 23.8058 13.7664 23.2911 13.7664 22.8518L13.3771 22.9209C13.1289 22.9675 12.8157 22.9873 12.4376 22.9817C12.0597 22.9763 11.6674 22.9357 11.2613 22.8602C10.8549 22.7854 10.477 22.6119 10.1271 22.34C9.77744 22.0682 9.52921 21.7123 9.38247 21.2731L9.21321 20.8738C9.10039 20.608 8.92276 20.3127 8.6801 19.989C8.43744 19.665 8.19205 19.4454 7.94382 19.3297L7.8253 19.2428C7.74633 19.185 7.67306 19.1153 7.60529 19.0344C7.53759 18.9535 7.4869 18.8725 7.45304 18.7915C7.41913 18.7103 7.44723 18.6438 7.53764 18.5916C7.62806 18.5394 7.79145 18.514 8.02854 18.514L8.36695 18.5659C8.59265 18.6122 8.87184 18.7507 9.20485 18.9822C9.53769 19.2135 9.8113 19.5142 10.0257 19.8842C10.2854 20.3586 10.5983 20.7201 10.9652 20.9688C11.3318 21.2176 11.7015 21.3417 12.0738 21.3417C12.4461 21.3417 12.7677 21.3128 13.0386 21.2553C13.3093 21.1974 13.5632 21.1104 13.8003 20.9949C13.9018 20.2195 14.1784 19.6239 14.6296 19.2075C13.9865 19.1382 13.4082 19.0339 12.8946 18.8951C12.3813 18.7562 11.8509 18.5307 11.3037 18.2181C10.7561 17.9059 10.302 17.5182 9.94096 17.0558C9.5799 16.593 9.28358 15.9855 9.05242 15.2338C8.82115 14.4818 8.70548 13.6143 8.70548 12.6312C8.70548 11.2312 9.15131 10.04 10.0428 9.05664C9.62519 8.00417 9.66462 6.82431 10.1612 5.5172C10.4885 5.41297 10.9738 5.49118 11.6169 5.75136C12.2602 6.01165 12.7312 6.23463 13.0303 6.4195C13.3295 6.60431 13.5692 6.76092 13.7498 6.88794C14.7995 6.58729 15.8827 6.43694 16.9998 6.43694C18.1168 6.43694 19.2003 6.58729 20.25 6.88794L20.8932 6.4717C21.3331 6.19397 21.8525 5.93945 22.4502 5.70809C23.0483 5.47684 23.5057 5.41315 23.8218 5.51738C24.3294 6.82455 24.3746 8.00435 23.9569 9.05682C24.8483 10.0401 25.2943 11.2317 25.2943 12.6313C25.2943 13.6145 25.1783 14.4847 24.9473 15.2425C24.7161 16.0004 24.4173 16.6073 24.0506 17.0645C23.6836 17.5215 23.2265 17.9062 22.6793 18.2183C22.1319 18.5307 21.6013 18.7561 21.088 18.8951C20.5745 19.034 19.9962 19.1384 19.3531 19.2078C19.9397 19.7282 20.233 20.5495 20.233 21.6715V25.3323C20.233 25.5403 20.3036 25.7139 20.4448 25.8527C20.5858 25.9912 20.8086 26.0319 21.1133 25.9739C23.7316 25.0834 25.8672 23.4784 27.5203 21.1591C29.1732 18.8399 30 16.2288 30 13.325C29.9994 10.908 29.4179 8.67863 28.2561 6.63695Z" fill="#524BE0"/>
</g>
<defs>
<filter id="filter0_d_301_114" x="0" y="0" width="34" height="34" filterUnits="userSpaceOnUse" color-interpolation-filters="sRGB">
<feFlood flood-opacity="0" result="BackgroundImageFix"/>
<feColorMatrix in="SourceAlpha" type="matrix" values="0 0 0 0 0 0 0 0 0 0 0 0 0 0 0 0 0 0 127 0" result="hardAlpha"/>
<feOffset dy="4"/>
<feGaussianBlur stdDeviation="2"/>
<feComposite in2="hardAlpha" operator="out"/>
<feColorMatrix type="matrix" values="0 0 0 0 0 0 0 0 0 0 0 0 0 0 0 0 0 0 0.25 0"/>
<feBlend mode="normal" in2="BackgroundImageFix" result="effect1_dropShadow_301_114"/>
<feBlend mode="normal" in="SourceGraphic" in2="effect1_dropShadow_301_114" result="shape"/>
</filter>
</defs>
</svg>
