<svg width="28" height="34" viewBox="0 0 28 34" fill="none" xmlns="http://www.w3.org/2000/svg">
<g filter="url(#filter0_d_301_115)">
<path d="M23.8333 5.57917L18.2778 0.1625C18.1752 0.0604423 18.0354 0.00203507 17.8889 0H6.22222C5.63285 0 5.06762 0.228273 4.65087 0.634602C4.23413 1.04093 4 1.59203 4 2.16667V23.8333C4 24.408 4.23413 24.9591 4.65087 25.3654C5.06762 25.7717 5.63285 26 6.22222 26H21.7778C22.3671 26 22.9324 25.7717 23.3491 25.3654C23.7659 24.9591 24 24.408 24 23.8333V5.95833C23.9979 5.81546 23.938 5.67918 23.8333 5.57917ZM14.5556 19.5H9C8.85266 19.5 8.71135 19.4429 8.60716 19.3414C8.50298 19.2398 8.44444 19.102 8.44444 18.9583C8.44444 18.8147 8.50298 18.6769 8.60716 18.5753C8.71135 18.4737 8.85266 18.4167 9 18.4167H14.5556C14.7029 18.4167 14.8442 18.4737 14.9484 18.5753C15.0526 18.6769 15.1111 18.8147 15.1111 18.9583C15.1111 19.102 15.0526 19.2398 14.9484 19.3414C14.8442 19.4429 14.7029 19.5 14.5556 19.5ZM19 17.3333H9C8.85266 17.3333 8.71135 17.2763 8.60716 17.1747C8.50298 17.0731 8.44444 16.9353 8.44444 16.7917C8.44444 16.648 8.50298 16.5102 8.60716 16.4087C8.71135 16.3071 8.85266 16.25 9 16.25H19C19.1473 16.25 19.2887 16.3071 19.3928 16.4087C19.497 16.5102 19.5556 16.648 19.5556 16.7917C19.5556 16.9353 19.497 17.0731 19.3928 17.1747C19.2887 17.2763 19.1473 17.3333 19 17.3333ZM19 15.1667H9C8.85266 15.1667 8.71135 15.1096 8.60716 15.008C8.50298 14.9064 8.44444 14.7687 8.44444 14.625C8.44444 14.4813 8.50298 14.3436 8.60716 14.242C8.71135 14.1404 8.85266 14.0833 9 14.0833H19C19.1473 14.0833 19.2887 14.1404 19.3928 14.242C19.497 14.3436 19.5556 14.4813 19.5556 14.625C19.5556 14.7687 19.497 14.9064 19.3928 15.008C19.2887 15.1096 19.1473 15.1667 19 15.1667ZM19 13H9C8.85266 13 8.71135 12.9429 8.60716 12.8414C8.50298 12.7398 8.44444 12.602 8.44444 12.4583C8.44444 12.3147 8.50298 12.1769 8.60716 12.0753C8.71135 11.9737 8.85266 11.9167 9 11.9167H19C19.1473 11.9167 19.2887 11.9737 19.3928 12.0753C19.497 12.1769 19.5556 12.3147 19.5556 12.4583C19.5556 12.602 19.497 12.7398 19.3928 12.8414C19.2887 12.9429 19.1473 13 19 13ZM19.5556 5.41667C19.2609 5.41667 18.9783 5.30253 18.7699 5.09937C18.5615 4.8962 18.4444 4.62065 18.4444 4.33333V1.8525L22.1 5.41667H19.5556Z" fill="#524BE0"/>
</g>
<defs>
<filter id="filter0_d_301_115" x="0" y="0" width="28" height="34" filterUnits="userSpaceOnUse" color-interpolation-filters="sRGB">
<feFlood flood-opacity="0" result="BackgroundImageFix"/>
<feColorMatrix in="SourceAlpha" type="matrix" values="0 0 0 0 0 0 0 0 0 0 0 0 0 0 0 0 0 0 127 0" result="hardAlpha"/>
<feOffset dy="4"/>
<feGaussianBlur stdDeviation="2"/>
<feComposite in2="hardAlpha" operator="out"/>
<feColorMatrix type="matrix" values="0 0 0 0 0 0 0 0 0 0 0 0 0 0 0 0 0 0 0.25 0"/>
<feBlend mode="normal" in2="BackgroundImageFix" result="effect1_dropShadow_301_115"/>
<feBlend mode="normal" in="SourceGraphic" in2="effect1_dropShadow_301_115" result="shape"/>
</filter>
</defs>
</svg>
