<svg width="32" height="34" viewBox="0 0 32 34" fill="none" xmlns="http://www.w3.org/2000/svg">
<g filter="url(#filter0_d_301_113)">
<path d="M26.2254 0.000181777H5.77465C5.54476 -0.00325618 5.3165 0.0421029 5.1029 0.133669C4.88929 0.225235 4.69453 0.361214 4.52974 0.53384C4.36494 0.706466 4.23334 0.912359 4.14244 1.13976C4.05155 1.36716 4.00315 1.61161 4 1.85916V24.1408C4.00315 24.3884 4.05155 24.6328 4.14244 24.8602C4.23334 25.0876 4.36494 25.2935 4.52974 25.4662C4.69453 25.6388 4.88929 25.7748 5.1029 25.8663C5.3165 25.9579 5.54476 26.0033 5.77465 25.9998H26.2254C26.4552 26.0033 26.6835 25.9579 26.8971 25.8663C27.1107 25.7748 27.3055 25.6388 27.4703 25.4662C27.6351 25.2935 27.7667 25.0876 27.8576 24.8602C27.9484 24.6328 27.9969 24.3884 28 24.1408V1.85916C27.9969 1.61161 27.9484 1.36716 27.8576 1.13976C27.7667 0.912359 27.6351 0.706466 27.4703 0.53384C27.3055 0.361214 27.1107 0.225235 26.8971 0.133669C26.6835 0.0421029 26.4552 -0.00325618 26.2254 0.000181777ZM11.2797 21.7619H7.65795V10.062H11.2797V21.7619ZM9.46881 8.42406C8.96933 8.42406 8.49031 8.2104 8.13712 7.83008C7.78393 7.44977 7.58551 6.93394 7.58551 6.39609C7.58551 5.85824 7.78393 5.34242 8.13712 4.9621C8.49031 4.58178 8.96933 4.36812 9.46881 4.36812C9.73404 4.33573 10.0026 4.36403 10.257 4.45117C10.5114 4.5383 10.7458 4.68231 10.9449 4.87376C11.144 5.06521 11.3032 5.29979 11.4123 5.56213C11.5214 5.82447 11.5778 6.10866 11.5778 6.39609C11.5778 6.68352 11.5214 6.96771 11.4123 7.23005C11.3032 7.49239 11.144 7.72697 10.9449 7.91842C10.7458 8.10987 10.5114 8.25388 10.257 8.34102C10.0026 8.42815 9.73404 8.45645 9.46881 8.42406ZM24.3421 21.7619H20.7203V15.483C20.7203 13.91 20.2012 12.883 18.8853 12.883C18.4781 12.8862 18.0815 13.0238 17.7491 13.2771C17.4167 13.5305 17.1644 13.8875 17.0262 14.3C16.9317 14.6055 16.8907 14.9273 16.9054 15.249V21.7489H13.2837C13.2837 21.7489 13.2837 11.115 13.2837 10.049H16.9054V11.7C17.2344 11.0853 17.713 10.5788 18.2895 10.2352C18.866 9.89159 19.5186 9.72385 20.1771 9.75004C22.5915 9.75004 24.3421 11.427 24.3421 15.028V21.7619Z" fill="#524BE0"/>
</g>
<defs>
<filter id="filter0_d_301_113" x="0" y="0" width="32" height="34" filterUnits="userSpaceOnUse" color-interpolation-filters="sRGB">
<feFlood flood-opacity="0" result="BackgroundImageFix"/>
<feColorMatrix in="SourceAlpha" type="matrix" values="0 0 0 0 0 0 0 0 0 0 0 0 0 0 0 0 0 0 127 0" result="hardAlpha"/>
<feOffset dy="4"/>
<feGaussianBlur stdDeviation="2"/>
<feComposite in2="hardAlpha" operator="out"/>
<feColorMatrix type="matrix" values="0 0 0 0 0 0 0 0 0 0 0 0 0 0 0 0 0 0 0.25 0"/>
<feBlend mode="normal" in2="BackgroundImageFix" result="effect1_dropShadow_301_113"/>
<feBlend mode="normal" in="SourceGraphic" in2="effect1_dropShadow_301_113" result="shape"/>
</filter>
</defs>
</svg>
