<svg width="51" height="52" viewBox="0 0 51 52" fill="none" xmlns="http://www.w3.org/2000/svg">
<g clip-path="url(#clip0_301_880)">
<path d="M16.8853 34.5363C16.4234 34.5363 16.0137 34.0361 15.8654 33.2908L15.8569 33.246L17.0725 32.7109L15.9408 31.8088L15.953 31.7715C16.1474 31.1979 16.4951 30.8545 16.8853 30.8545C17.4797 30.8545 17.9622 31.6807 17.9622 32.696C17.9622 33.7113 17.4797 34.5375 16.8853 34.5375V34.5363Z" fill="#524BE0"/>
<path d="M16.8853 30.9104C16.5097 30.9104 16.1815 31.2638 16.004 31.7901L17.1782 32.7258L15.9189 33.2807C16.0575 33.98 16.438 34.4815 16.8853 34.4815C17.4505 34.4815 17.9076 33.6826 17.9076 32.6959C17.9076 31.7092 17.4493 30.9104 16.8853 30.9104Z" fill="#524BE0"/>
<path d="M14.6121 31.8397C14.6352 31.6107 14.6413 31.3793 14.6328 31.1478C14.5817 31.0794 14.5088 31.0085 14.4018 30.9637C14.335 30.9351 14.2645 30.9214 14.1928 30.9214C14.098 30.9214 14.0165 30.9463 13.9594 30.9699C13.9168 31.2424 13.8792 31.5161 13.8391 31.7886C13.8779 31.77 13.957 31.7376 14.0554 31.7376C14.1089 31.7376 14.1624 31.7476 14.2122 31.7662C14.2341 31.775 14.2548 31.7849 14.2742 31.7949C14.3338 31.8185 14.3885 31.8521 14.4383 31.8944C14.4869 31.9118 14.5331 31.9342 14.5793 31.9604L14.6121 31.8384V31.8397Z" fill="#524BE0"/>
<path d="M14.6328 31.556C14.6365 31.4564 14.6377 31.3569 14.6365 31.2561C14.5939 31.1752 14.5174 31.072 14.3812 31.0147C14.194 30.9351 14.0263 30.9973 13.9497 31.0346C13.9145 31.2636 13.8829 31.4938 13.8488 31.7227C13.9254 31.6916 14.07 31.653 14.2317 31.714C14.3569 31.7613 14.4359 31.8484 14.4785 31.9106C14.4955 31.9181 14.5137 31.9255 14.5307 31.9342C14.5648 31.8086 14.5988 31.6816 14.6328 31.556Z" fill="#524BE0"/>
<path d="M14.6025 31.927C14.6341 31.662 14.6426 31.3932 14.6316 31.127C14.5806 31.061 14.5076 30.9951 14.4068 30.9515C14.3387 30.9229 14.2658 30.908 14.1916 30.908C14.098 30.908 14.019 30.9316 13.9619 30.954C13.9181 31.2377 13.8792 31.5214 13.8367 31.8051C13.8731 31.7852 13.9534 31.7516 14.0543 31.7516C14.0931 31.7516 14.1308 31.7566 14.1685 31.7665C14.2706 31.7814 14.3618 31.8287 14.4396 31.8959C14.4918 31.9158 14.5429 31.9395 14.5915 31.9681L14.6025 31.9258V31.927ZM14.2548 31.6495C14.1904 31.6247 14.1235 31.6135 14.0543 31.6135C13.985 31.6135 13.9303 31.6247 13.8816 31.6396L13.9692 31.1046C14.0093 31.0834 14.0907 31.0473 14.1916 31.0473C14.2475 31.0473 14.3022 31.0585 14.3545 31.0809C14.5295 31.1556 14.5927 31.3186 14.611 31.3758L14.4918 31.8175C14.4396 31.7566 14.3618 31.6906 14.2548 31.6508V31.6495Z" fill="#524BE0"/>
<path d="M14.5174 31.9296C14.5259 31.9333 14.5344 31.9383 14.5417 31.942L14.628 31.621C14.6304 31.5799 14.6317 31.5389 14.6329 31.4978L14.5162 31.9296H14.5174Z" fill="#524BE0"/>
<path d="M14.6365 31.289C14.6365 31.2691 14.6365 31.2493 14.6365 31.2282C14.5903 31.1488 14.5137 31.0557 14.3873 31.0023C14.2025 30.9241 14.0348 30.98 13.9533 31.0184C13.9521 31.0296 13.9497 31.0408 13.9485 31.0519C14.0178 31.016 14.1879 30.9477 14.3776 31.0284C14.5234 31.0904 14.6 31.2071 14.6377 31.289H14.6365Z" fill="#524BE0"/>
<path d="M14.2268 31.7278C14.3362 31.7687 14.4092 31.8407 14.4541 31.9015C14.4699 31.9077 14.4857 31.914 14.5016 31.9214C14.4578 31.8519 14.3739 31.7538 14.2353 31.7017C14.1709 31.6781 14.1101 31.6682 14.0542 31.6682C13.9716 31.6682 13.9011 31.6881 13.8512 31.7079C13.85 31.7191 13.8476 31.729 13.8464 31.7402C13.923 31.7079 14.0664 31.6682 14.2268 31.7278Z" fill="#524BE0"/>
<path d="M18.9019 30.3318C17.4675 30.3318 16.5948 30.3728 16.3091 30.4537L16.2994 30.4562C16.2544 30.4686 16.162 30.496 16.0684 30.496C15.9748 30.496 15.9068 30.4699 15.8606 30.4189C15.8205 30.3728 15.7998 30.3106 15.7998 30.2335C15.7998 30.0705 15.8764 29.8428 15.9274 29.691L15.9299 29.6835C16.0064 29.4558 16.1146 29.2306 16.252 29.0141C16.3152 28.9145 16.3857 28.8175 16.4586 28.7254C16.4817 28.698 16.5121 28.6682 16.5449 28.6383C16.5911 28.5948 16.6483 28.5413 16.6641 28.5039L16.7649 28.5462C16.7042 28.698 16.6628 28.861 16.6446 29.0253C16.8707 28.7192 17.2378 28.5164 17.6122 28.5052C17.6644 28.5039 17.7179 28.5027 17.7702 28.5027C18.666 28.5027 19.5534 28.7441 20.5623 29.2642H20.5647L20.8176 29.4322L20.6911 30.7287L18.9019 30.3318Z" fill="#524BE0"/>
<path d="M18.9067 30.2768C17.222 30.2768 16.5364 30.3316 16.2945 30.4C16.2362 30.4162 15.9991 30.4921 15.8995 30.3801C15.8703 30.3478 15.8533 30.2992 15.8533 30.232C15.8533 30.0753 15.9299 29.8501 15.9809 29.7007C16.0587 29.4693 16.1681 29.2478 16.2982 29.0438C16.3602 28.9455 16.4282 28.8509 16.5012 28.7613C16.5559 28.6941 16.6835 28.6033 16.7151 28.5249C16.6239 28.7501 16.5777 28.994 16.5802 29.2379C16.7722 28.8447 17.1855 28.5747 17.6146 28.561C18.6636 28.5274 19.6008 28.831 20.5392 29.3138L20.7616 29.4606L20.6437 30.6613C20.0651 30.5332 19.4865 30.405 18.9079 30.2768H18.9067Z" fill="#524BE0"/>
<path d="M28.8279 38.228L28.7854 38.2629L28.7429 38.2965C28.6383 38.1608 28.5374 38.0165 28.4438 37.8684C27.8117 36.8718 27.4629 35.6536 27.4629 34.438C27.4629 33.8196 27.5504 33.2111 27.723 32.63C27.8701 32.1174 28.0852 31.6247 28.3648 31.1655L28.411 31.1941L28.4572 31.2228C27.8883 32.1746 27.5881 33.2932 27.5881 34.4579C27.5881 34.489 27.5881 34.5213 27.5881 34.5537C27.6002 35.8913 28.0403 37.1953 28.8279 38.228Z" fill="#524BE0"/>
<path d="M27.5346 34.5549C27.5176 33.338 27.8276 32.1708 28.411 31.1941C28.1387 31.642 27.9224 32.131 27.7753 32.6462C27.2599 34.3819 27.5273 36.323 28.49 37.8385C28.5836 37.9853 28.6821 38.1272 28.7866 38.2616C28.0075 37.24 27.548 35.9161 27.5358 34.5536L27.5346 34.5549ZM27.5346 34.5549C27.5176 33.338 27.8276 32.1708 28.411 31.1941C28.1387 31.642 27.9224 32.131 27.7753 32.6462C27.2599 34.3819 27.5273 36.323 28.49 37.8385C28.5836 37.9853 28.6821 38.1272 28.7866 38.2616C28.0075 37.24 27.548 35.9161 27.5358 34.5536L27.5346 34.5549ZM27.5346 34.5549C27.5176 33.338 27.8276 32.1708 28.411 31.1941C28.1387 31.642 27.9224 32.131 27.7753 32.6462C27.2599 34.3819 27.5273 36.323 28.49 37.8385C28.5836 37.9853 28.6821 38.1272 28.7866 38.2616C28.0075 37.24 27.548 35.9161 27.5358 34.5536L27.5346 34.5549ZM27.5346 34.5549C27.5176 33.338 27.8276 32.1708 28.411 31.1941C28.1387 31.642 27.9224 32.131 27.7753 32.6462C27.2599 34.3819 27.5273 36.323 28.49 37.8385C28.5836 37.9853 28.6821 38.1272 28.7866 38.2616C28.0075 37.24 27.548 35.9161 27.5358 34.5536L27.5346 34.5549Z" fill="#524BE0"/>
<path d="M32.0066 28.7105L31.9957 28.6558C31.0038 28.7864 30.0739 29.2431 29.3081 29.9759C28.9483 30.3206 28.6335 30.7163 28.3709 31.1543L28.4171 31.1829L28.4633 31.2127C28.9872 30.3542 29.6946 29.6761 30.5103 29.2518C30.96 29.0166 31.4377 28.8573 31.9312 28.7814C31.9507 28.7777 31.9701 28.7752 31.9835 28.7727C31.9932 28.7715 32.0029 28.769 32.0115 28.7665C32.0127 28.7665 32.0151 28.7665 32.0163 28.7653L32.0054 28.7118L32.0066 28.7105ZM28.5046 38.4793L28.4195 38.549C28.4195 38.549 28.422 38.5527 28.4244 38.5552C28.4244 38.5564 28.4268 38.5577 28.4268 38.5589C28.4268 38.5589 28.4268 38.5602 28.428 38.5614L28.456 38.5975L28.4985 38.5627L28.5411 38.5278L28.5034 38.4793H28.5046ZM32.1658 40.1628C32.1658 40.1628 32.1622 40.1628 32.1598 40.1628L32.1306 40.1591C31.4924 40.077 30.8919 39.8766 30.3474 39.5668C30.3437 39.5643 30.3401 39.5631 30.3364 39.5606C29.8563 39.2856 29.4199 38.9248 29.0382 38.4855L28.9981 38.5216L28.9568 38.5589C29.2109 38.8538 29.4929 39.1189 29.798 39.3441C30.5382 39.8766 31.332 40.1889 32.1561 40.2735L32.1622 40.2188L32.1683 40.164C32.1683 40.164 32.1683 40.164 32.167 40.164L32.1658 40.1628Z" fill="#524BE0"/>
<path d="M32.1233 40.214C30.9029 40.0584 29.8174 39.4662 28.9981 38.523C29.2485 38.8142 29.5269 39.0742 29.8296 39.2994C30.5662 39.8295 31.3599 40.1368 32.161 40.219L32.1233 40.214ZM29.3458 30.0159C28.9872 30.3593 28.676 30.7525 28.4183 31.183C28.9374 30.3332 29.657 29.6339 30.4872 29.2022C30.943 28.9645 31.4256 28.804 31.924 28.7268C31.9434 28.7244 31.9616 28.7206 31.9762 28.7181C31.9859 28.7169 31.9945 28.7144 32.0042 28.7119C31.0293 28.8401 30.1092 29.288 29.347 30.0172L29.3458 30.0159ZM28.4621 38.5143C28.4621 38.5143 28.4682 38.523 28.4718 38.5267C28.4815 38.5392 28.4901 38.5504 28.4998 38.5628C28.4876 38.5467 28.4755 38.5305 28.4621 38.5143Z" fill="#524BE0"/>
<path d="M28.5046 38.4795L28.4196 38.549C28.4196 38.549 28.422 38.5527 28.4244 38.5552C28.4244 38.5564 28.4268 38.5577 28.4268 38.5589C28.4268 38.5589 28.4268 38.5602 28.4281 38.5614L28.456 38.5974L28.4986 38.5626L28.5411 38.5279L28.5034 38.4795H28.5046ZM28.6311 38.6408L28.6153 38.6173H28.4706L28.546 38.7091C28.546 38.7091 28.5496 38.7141 28.552 38.7165L28.6323 38.6408H28.6311Z" fill="#524BE0"/>
<path d="M28.5873 38.6734C28.5873 38.6734 28.5897 38.6772 28.5922 38.6784C28.5909 38.6772 28.5897 38.6747 28.5885 38.6734H28.5873ZM28.4621 38.5142C28.4621 38.5142 28.4682 38.5229 28.4718 38.5266C28.4815 38.539 28.4901 38.5502 28.4998 38.5627C28.4876 38.5465 28.4755 38.5303 28.4621 38.5142Z" fill="#524BE0"/>
<path d="M28.0595 42.7074L27.9576 42.675V42.6762L28.0092 42.6918L28.0595 42.7074Z" fill="#524BE0"/>
<path d="M26.0243 31.6923L26.0662 31.6582L25.9799 31.7227L25.9811 31.7252L26.0243 31.6923Z" fill="#524BE0"/>
<path d="M32.4892 28.1855C33.0058 28.2067 33.4385 28.3037 33.7594 28.402C34.2456 26.9774 34.8765 24.1404 33.695 21.0384C32.3348 17.4636 29.4175 15.8685 28.3187 15.2675C26.4905 14.2683 24.8252 13.9834 23.995 13.9025C22.8427 13.7905 21.9091 13.9249 21.1579 14.0344L21.0959 14.0431C20.1685 14.1763 19.2532 14.3915 18.361 14.6839C19.8439 14.7262 21.2819 14.9179 22.6482 15.2526C24.2563 15.6482 25.7296 16.2343 27.0278 16.9945C29.6181 18.5138 31.3417 20.644 31.8814 22.9957C32.2522 24.612 32.0589 26.4311 31.3235 28.2739C31.631 28.2142 32.0273 28.1656 32.4892 28.1843V28.1855ZM31.4098 28.2017C32.1185 26.3826 32.2996 24.5796 31.9337 22.9832C31.3916 20.6166 29.6582 18.4727 27.0545 16.9473C25.7514 16.1833 24.2734 15.596 22.6603 15.1991C21.3925 14.8867 20.0554 14.7001 18.6819 14.6404C19.4744 14.3977 20.2864 14.2161 21.102 14.0979L21.164 14.0892C21.7244 14.0083 22.3601 13.9162 23.1198 13.9162C23.4103 13.9162 23.7033 13.9299 23.9889 13.9585C24.8155 14.0394 26.4735 14.3231 28.2919 15.3173C29.3859 15.9145 32.2898 17.5035 33.6427 21.0596C34.8048 24.1118 34.2007 26.9089 33.723 28.3349C33.3206 28.2166 32.9061 28.147 32.4892 28.1308C32.4211 28.1283 32.3518 28.1271 32.285 28.1271C31.992 28.1271 31.6979 28.1532 31.4086 28.203L31.4098 28.2017Z" fill="#524BE0"/>
<path d="M28.6152 38.6175H28.4706L28.5459 38.7093C28.5459 38.7093 28.5496 38.7143 28.552 38.7167L28.6322 38.641L28.6164 38.6162L28.6152 38.6175Z" fill="#524BE0"/>
<path d="M28.5411 38.5279L28.5034 38.4795L28.4183 38.549C28.4183 38.549 28.4208 38.5527 28.4232 38.5552C28.4232 38.5564 28.4256 38.5577 28.4256 38.5589C28.4256 38.5589 28.4256 38.5602 28.4268 38.5614L28.4548 38.5974L28.4973 38.5626L28.5399 38.5279H28.5411Z" fill="#524BE0"/>
<path d="M36.6949 30.2858C36.0191 29.4248 35.1463 28.7965 34.169 28.4642C34.462 27.5858 34.6565 26.6289 34.733 25.6945C34.8716 24.0172 34.6504 22.3996 34.0742 20.8866C32.6593 17.1675 29.6448 15.5201 28.5107 14.9004C26.6205 13.8664 24.8945 13.5715 24.0339 13.4882C23.7324 13.4583 23.4249 13.4434 23.1186 13.4434C22.3333 13.4434 21.6806 13.5367 21.1044 13.62L21.0388 13.63C19.7491 13.8154 18.4801 14.1551 17.2669 14.6379L16.3504 15.0024L16.3711 15.1094L17.3545 15.0933C17.4712 15.0908 17.5891 15.0908 17.7058 15.0908C21.0692 15.0908 24.3001 15.8908 26.8041 17.3442C29.3057 18.7962 30.9685 20.8381 31.4851 23.0902C31.8449 24.6605 31.6395 26.4448 30.8895 28.2552C30.2283 28.341 29.5962 28.5588 29.0079 28.9022C28.2019 29.3738 27.5006 30.0805 26.9803 30.9453C26.6254 31.5363 26.3616 32.1821 26.1975 32.8565C26.1939 32.8715 26.1902 32.8876 26.1866 32.9026C26.0808 33.348 26.0188 33.8071 26.003 34.27C25.9593 35.5168 26.2522 36.7324 26.8503 37.7851C27.4641 38.9074 28.4207 39.7946 29.5451 40.2898L29.1841 41.0824V41.1396C29.1817 41.2292 29.2036 41.3126 29.2327 41.4283L29.2352 41.4395C29.2534 41.5104 29.2753 41.5988 29.2984 41.712C29.3968 42.1898 29.5694 42.9177 29.7226 43.5598C29.9244 44.4071 30.1979 45.5618 30.2319 45.8741C28.0403 49.327 25.7283 50.8686 22.7381 50.8686C22.3807 50.8686 22.0039 50.8462 21.6222 50.8027H21.6161C21.5845 50.7989 21.5554 50.784 21.5298 50.7591L21.525 50.7542C21.2746 50.5165 21.0412 50.2564 20.8309 49.9827C20.544 49.5982 20.3094 49.2237 20.149 48.8952C21.294 48.782 23.8114 48.4958 25.941 46.5236C27.0204 45.6327 28.1497 43.7576 28.4244 42.9065L28.4293 42.8928C28.4378 42.8704 28.4438 42.8543 28.4487 42.8406C28.4985 42.6925 28.428 42.593 28.3952 42.5581C28.3721 42.5332 28.3077 42.4735 28.2044 42.4735C28.1861 42.4735 28.1667 42.476 28.1472 42.4797H28.1424C28.1424 42.4797 28.1387 42.4822 28.1375 42.4822H28.129C28.129 42.4822 26.6072 43.3345 26.3033 43.5038C25.1753 43.8808 24.0266 44.2254 22.89 44.529C22.8657 44.5353 20.493 45.1661 18.6356 45.3615C18.4436 45.3814 18.2017 45.3926 17.7641 45.4112L17.634 45.4162C17.3034 45.4311 17.07 45.4374 16.878 45.4374C16.3893 45.4374 16.128 45.3963 15.8423 45.2756H15.8399L15.8375 45.2744C15.835 45.2744 15.5737 45.186 15.3683 45.0056C14.1904 43.9654 13.9643 40.7477 13.8671 39.3715C13.8197 38.7058 13.8136 38.6038 13.7151 38.5055L13.6665 38.457L13.6009 38.4383C12.9007 38.243 11.9392 37.7988 11.3424 36.7959C11.0725 36.3504 10.8781 35.6848 10.8744 35.197C11.4688 34.8747 12.5361 34.2849 13.0758 33.4015L13.0891 33.3766C13.2946 32.9386 13.4672 32.2394 13.613 31.4468C13.6689 31.0561 13.7249 30.6654 13.8027 30.2784C13.9206 29.4634 14.0166 28.6347 14.0956 27.9466V27.9441C14.1284 27.6667 14.1515 27.4589 14.1722 27.2871C15.192 27.8856 16.6008 28.2689 17.7884 28.2689C17.9574 28.2689 18.1227 28.2614 18.2771 28.2465C18.5031 28.2328 18.553 28.0673 18.5627 28.0163C18.5785 27.9329 18.5712 27.7786 18.3512 27.6778H18.3476C17.1101 27.1441 16.5522 26.3241 16.3018 25.7318C16.1705 25.4195 16.0891 25.0885 16.0623 24.76C16.8743 26.5568 18.4813 27.9292 20.3167 28.3746C20.352 28.3846 20.3872 28.3896 20.4201 28.3896C20.5671 28.3896 20.6376 28.2875 20.6559 28.2552C20.7252 28.1357 20.6972 27.9951 20.5817 27.8782C20.2705 27.5621 19.7916 26.9363 19.5157 26.3987L19.5108 26.39C19.2969 26.0093 19.0975 25.4954 18.9505 24.9516C19.1243 25.1955 19.32 25.4705 19.5254 25.7604L19.8536 26.222C20.5258 27.1677 21.2211 28.1457 21.5517 28.6061L21.5615 28.6185C22.591 29.8615 23.1271 31.5289 23.3957 32.7085C23.702 34.0548 23.7519 35.1398 23.719 35.3438L23.6242 35.9548L24.1214 35.6014C24.7462 35.1584 25.0938 34.4417 25.1534 33.4737C25.1692 33.2099 25.1631 32.9399 25.1412 32.6686C25.1412 32.6661 25.1412 32.6649 25.1412 32.6624C25.1242 32.4584 25.0975 32.2543 25.0646 32.054C25.0634 32.044 25.061 32.0328 25.0598 32.0229C24.9832 31.5637 24.8714 31.122 24.7583 30.74C24.9382 30.9864 25.0671 31.1631 25.1558 31.2875L25.4852 31.7404C25.5691 31.8561 25.6299 31.9382 25.653 31.9706C25.7064 32.044 25.7855 32.0863 25.8718 32.0863C25.8815 32.0863 25.8912 32.0863 25.9009 32.0851C25.997 32.0739 26.0772 32.0117 26.1173 31.9171L26.1234 31.9034C26.1428 31.8474 26.1611 31.7927 26.1756 31.7466L26.1781 31.7404C26.2012 31.6695 26.2243 31.5973 26.2559 31.5139C26.2583 31.5065 26.5488 30.7612 27.2052 29.9126C27.9856 28.9047 28.9203 28.2054 29.9815 27.8346C30.148 27.7761 30.3194 27.7251 30.492 27.6841L30.6452 27.6467L30.6829 27.49C30.9515 26.3776 31.1399 24.6617 30.5188 22.8003C29.9074 20.9675 28.7878 19.875 28.1181 19.2205C27.142 18.2687 25.9994 17.4736 24.7231 16.8589C23.6874 16.3612 22.5582 15.9779 21.3682 15.7229C19.9423 15.4155 18.7292 15.3521 17.9622 15.3521C17.6766 15.3521 17.4651 15.3608 17.3362 15.3683C16.3468 15.4267 14.0275 15.5636 11.5223 17.0144C9.89348 17.9576 8.46157 19.3014 7.38095 20.904L7.3688 20.9239C7.33841 20.9799 6.63461 22.3113 6.85827 23.945C6.88137 24.1167 6.9932 24.1939 7.08922 24.2101C7.10381 24.2125 7.11961 24.2138 7.1342 24.2138C7.19741 24.2138 7.31775 24.1889 7.39676 24.0259L7.4004 24.0197C7.71401 23.3391 8.01425 22.8289 8.40687 22.3125C8.8554 21.7203 9.37079 21.2101 9.94088 20.7883C9.40361 21.4627 9.00492 22.1321 8.75087 22.7841C8.39958 23.6862 8.3157 24.5709 8.50411 25.412C8.71805 26.3689 9.29421 27.2759 10.1694 28.0374C10.8854 28.6596 11.7934 29.1797 12.7281 29.5007L12.9858 29.5891L13.0587 29.3203C13.1584 28.9495 13.3505 28.1507 13.5036 27.5086C13.5571 27.2859 13.6057 27.0831 13.6459 26.9151L13.6945 26.9574C13.6629 27.2075 13.6276 27.5124 13.5875 27.8632L13.5851 27.8807C13.3894 29.5741 13.0952 32.1324 12.6321 33.1327C12.1519 33.9079 11.1345 34.4591 10.5256 34.7889L10.3785 34.8685L10.3675 35.0128C10.3201 35.6126 10.5462 36.4786 10.9048 37.0709C11.5539 38.1596 12.5664 38.666 13.314 38.9C13.3274 39.0281 13.342 39.2359 13.3541 39.4064C13.404 40.1218 13.4878 41.3176 13.7188 42.4723C14.0044 43.8994 14.4469 44.8862 15.0328 45.4025C15.3221 45.6576 15.6624 45.7683 15.6953 45.7783C16.0405 45.9114 16.3164 45.9326 17.1478 45.9425C17.3557 45.945 17.566 45.9463 17.7738 45.9463C17.9671 45.9463 18.1616 45.9463 18.3549 45.9438C18.4533 46.3892 18.5846 46.8297 18.7438 47.254C18.9772 47.8699 19.275 48.4622 19.6312 49.0159L19.6336 49.0196C19.8512 49.5012 20.1818 49.9839 20.4225 50.3062C20.6498 50.6023 20.9014 50.8823 21.17 51.1386C21.277 51.2456 21.4168 51.3128 21.5651 51.3278C21.9614 51.3726 22.3516 51.3962 22.7259 51.3962C24.125 51.3962 25.3637 51.0851 26.5123 50.4468C28.0196 49.6069 29.3932 48.1835 30.7084 46.0931L30.7424 46.0384L30.7485 45.9749C30.768 45.7609 30.6039 45.0367 30.2234 43.4366L30.2137 43.3918C30.0581 42.7336 29.8964 42.0529 29.804 41.605C29.7785 41.4768 29.7542 41.3798 29.7335 41.3014V41.2964C29.7226 41.2579 29.7129 41.218 29.7056 41.1882L30.0301 40.4764C30.5261 40.6382 31.0329 40.7191 31.5362 40.7191C31.7209 40.7191 31.9069 40.7079 32.0892 40.6855C32.257 40.7041 32.4272 40.7129 32.5961 40.7129C33.3947 40.7129 34.1739 40.5113 34.9129 40.1156C36.8651 39.0667 38.1147 36.8444 38.0952 34.4529V34.4492C38.1001 32.9187 37.6029 31.4405 36.6949 30.2846V30.2858ZM38.0417 34.4554C38.0612 36.8258 36.8238 39.0294 34.8886 40.0683C34.152 40.464 33.3753 40.6594 32.5973 40.6594C32.4284 40.6594 32.2594 40.6506 32.0905 40.632C31.9069 40.6544 31.7222 40.6656 31.5374 40.6656C31.0171 40.6656 30.4993 40.5772 30.0022 40.4093L29.6509 41.182C29.6569 41.2155 29.6691 41.2628 29.6813 41.3114C29.7007 41.3897 29.7262 41.488 29.7518 41.6175C29.8466 42.0766 30.0119 42.7746 30.1723 43.4503C30.5419 45.0081 30.7145 45.7646 30.6962 45.9699L30.6914 46.0209L30.6646 46.0632C29.3543 48.1449 27.988 49.5634 26.488 50.3983C25.3539 51.0291 24.1153 51.3414 22.7284 51.3414C22.354 51.3414 21.9699 51.319 21.5736 51.273C21.4375 51.2593 21.3086 51.1984 21.2114 51.1001C20.944 50.8462 20.6936 50.5675 20.4687 50.2726C20.2171 49.9354 19.8949 49.4601 19.681 48.986C19.3881 48.5319 19.0672 47.9471 18.7985 47.2353C18.6138 46.7476 18.4886 46.2922 18.4023 45.889C17.961 45.894 17.5441 45.8928 17.1527 45.889C16.3358 45.8803 16.0575 45.8604 15.7171 45.7285C15.7171 45.7285 15.3646 45.6203 15.0729 45.3627C14.4967 44.8538 14.0603 43.8783 13.7771 42.4636C13.5474 41.3151 13.4635 40.1206 13.4137 39.4051C13.3991 39.1948 13.3833 38.9796 13.3699 38.8601C12.6017 38.625 11.6001 38.121 10.9571 37.0447C10.6034 36.4612 10.3809 35.6088 10.4271 35.0203L10.4356 34.9058L10.5559 34.8411C11.171 34.5077 12.1981 33.9515 12.6844 33.1626C13.1511 32.156 13.4465 29.5903 13.6434 27.8894C13.686 27.5211 13.7236 27.1963 13.7565 26.9375C13.7127 26.9002 13.6653 26.8604 13.6179 26.8193C13.5741 27.0022 13.517 27.2374 13.455 27.4987C13.3006 28.1407 13.1098 28.9408 13.0101 29.3091L12.953 29.5206L12.7488 29.4509C11.8201 29.1324 10.9182 28.616 10.2083 27.9989C9.34162 27.2448 8.77153 26.3477 8.56124 25.4033C8.37648 24.5734 8.45792 23.6999 8.80557 22.8078C9.0973 22.0587 9.57987 21.291 10.2436 20.5171C9.69777 20.8742 9.00978 21.4353 8.36919 22.2814C7.97414 22.8003 7.67147 23.3129 7.35664 23.9985L7.35421 24.0023C7.27642 24.1615 7.16337 24.1678 7.10381 24.1578C7.06613 24.1516 6.94214 24.1167 6.91783 23.9401C6.6966 22.3188 7.39189 21.0085 7.42228 20.9538L7.43322 20.9364C8.50776 19.3437 9.93359 18.0049 11.5551 17.0667C14.0494 15.6233 16.3589 15.4865 17.346 15.428C17.7835 15.4018 19.365 15.3508 21.3633 15.7813C22.5497 16.0364 23.6753 16.4172 24.7061 16.9136C25.9775 17.5246 27.1153 18.3159 28.0865 19.2653C28.7514 19.9148 29.866 21.0011 30.4738 22.8227C31.0913 24.6704 30.9029 26.3763 30.6367 27.4813L30.6063 27.6044L30.4859 27.6343C30.3121 27.6766 30.1383 27.7276 29.9706 27.7861C28.8997 28.1606 27.9564 28.8649 27.17 29.8827C26.5148 30.7288 26.2255 31.4667 26.2133 31.4978C26.1793 31.5849 26.155 31.6595 26.1319 31.7329C26.1161 31.7827 26.0991 31.835 26.0808 31.8872L26.076 31.8997C26.0444 31.9743 25.9787 32.0253 25.9034 32.0341C25.8268 32.0428 25.7526 32.0079 25.7052 31.9432C25.6773 31.9046 25.5983 31.7964 25.4864 31.6433L25.2081 31.2601C25.0707 31.0685 24.8519 30.7686 24.6173 30.4488C24.6173 30.4513 24.6185 30.4538 24.6197 30.4563C24.8787 31.2551 25.1728 32.4272 25.1084 33.4749C25.0501 34.4255 24.7097 35.1273 24.0995 35.5603L23.7069 35.839L23.7822 35.3563C23.8151 35.1485 23.7652 34.0523 23.4577 32.6997C23.1878 31.5139 22.6494 29.8367 21.6125 28.5862L21.604 28.575C21.26 28.0972 20.527 27.0669 19.8196 26.0702C19.4573 25.5613 19.1061 25.0661 18.8362 24.6879C18.9711 25.2677 19.196 25.9296 19.4719 26.4211L19.4756 26.4286C19.7527 26.9711 20.2365 27.6019 20.5501 27.9217C20.5963 27.969 20.6948 28.0922 20.6158 28.2303C20.5951 28.2651 20.5161 28.3746 20.3374 28.3236C18.4144 27.857 16.7564 26.3577 16.0052 24.4738C15.9979 24.8944 16.083 25.3411 16.258 25.7567C16.5121 26.3589 17.0773 27.1913 18.3318 27.7301L18.3366 27.7326C18.5117 27.8135 18.5311 27.9279 18.5153 28.0101C18.508 28.0511 18.4679 28.183 18.2807 28.1942C16.9862 28.3211 15.3038 27.9093 14.1357 27.2C14.109 27.4166 14.0798 27.6667 14.0494 27.9416C13.8488 29.6749 13.5474 32.2941 13.0478 33.3567L13.0369 33.3766C12.5166 34.2302 11.4883 34.81 10.8282 35.1684C10.8234 35.6661 11.0179 36.3567 11.3047 36.8295C11.9113 37.8473 12.8849 38.2977 13.5948 38.4956L13.6459 38.5105L13.6835 38.5491C13.7638 38.6299 13.7711 38.7071 13.8185 39.379C13.9157 40.7601 14.1418 43.9953 15.3379 45.0504C15.5542 45.242 15.8253 45.3304 15.8253 45.3304C16.2264 45.4996 16.5935 45.5207 17.6401 45.4747C18.1677 45.4511 18.4326 45.4411 18.6442 45.4187C20.5282 45.2196 22.9071 44.585 22.9071 44.585C23.8199 44.3412 24.9832 44.0065 26.3276 43.5573C26.9354 43.2176 27.5431 42.8779 28.1497 42.5395C28.1509 42.5395 28.1521 42.5395 28.1545 42.5395C28.2664 42.5133 28.3369 42.5793 28.3563 42.6004C28.3818 42.629 28.4378 42.7074 28.3976 42.8269C28.3928 42.8431 28.3867 42.858 28.3794 42.8767C28.377 42.8816 28.3758 42.8866 28.3733 42.8928C28.1011 43.7414 26.9828 45.5991 25.9058 46.4875C23.7932 48.446 21.3232 48.731 20.0651 48.8541C20.2256 49.2 20.476 49.6057 20.7872 50.0238C20.9987 50.3 21.2345 50.5625 21.4873 50.8027L21.4922 50.8077C21.525 50.8412 21.5651 50.8599 21.6101 50.8649H21.6137C25.2239 51.2767 27.8203 49.7898 30.2866 45.8965C30.2623 45.6128 29.9827 44.432 29.7749 43.556C29.6132 42.8779 29.4467 42.1761 29.3518 41.7095C29.3275 41.5888 29.3044 41.4968 29.2862 41.4233C29.2583 41.3114 29.2376 41.2317 29.2388 41.1496V41.1048L29.6193 40.2711C28.5095 39.7971 27.5322 38.9236 26.8989 37.7677C26.3057 36.7237 26.014 35.518 26.0589 34.2812C26.1003 33.1091 26.4358 31.9681 27.0277 30.9826C27.5431 30.1253 28.2384 29.4248 29.037 28.9582C29.629 28.6123 30.2623 28.397 30.9296 28.3137C31.6942 26.4821 31.9057 24.6779 31.5398 23.0852C30.4458 18.3122 24.4787 14.9303 17.3557 15.0447L16.3723 15.0609L17.2888 14.6963C18.4983 14.2148 19.7637 13.8764 21.0485 13.6922L21.1105 13.6835C21.8799 13.5728 22.8366 13.4346 24.0302 13.5504C24.8872 13.6337 26.6047 13.9274 28.4864 14.9564C29.6156 15.5736 32.6168 17.2148 34.0256 20.914C34.5981 22.4183 34.8181 24.0272 34.6808 25.697C34.6018 26.6488 34.4012 27.6194 34.101 28.5078C35.0843 28.83 35.9668 29.4547 36.6536 30.3282C37.5543 31.4741 38.0466 32.9399 38.0417 34.4579V34.4629V34.4554Z" fill="#524BE0"/>
<path d="M32.9669 28.6881C32.6435 28.6607 32.3214 28.6694 32.0054 28.7105L31.9944 28.6558C31.0025 28.7864 30.0727 29.2431 29.3069 29.9759C28.9471 30.3206 28.6322 30.7163 28.3697 31.1543L28.4159 31.1829C28.4159 31.1829 28.411 31.1903 28.4098 31.1928L28.3636 31.1642C28.084 31.6234 27.8689 32.1173 27.7218 32.6287C27.5492 33.2098 27.4617 33.8183 27.4617 34.4367C27.4617 35.6523 27.8105 36.8717 28.4426 37.8671C28.5362 38.0152 28.6371 38.1595 28.7416 38.2951L28.7842 38.2616C28.7963 38.2777 28.8097 38.2939 28.8219 38.3101C28.8352 38.3263 28.8474 38.3424 28.8608 38.3586C28.8644 38.3636 28.8681 38.3686 28.8717 38.3735C28.8863 38.3922 28.9021 38.4109 28.9179 38.4295C28.9313 38.4457 28.9434 38.4606 28.9568 38.4756C28.9702 38.4905 28.9823 38.5054 28.9957 38.5204L28.9544 38.5577C29.2084 38.8526 29.4904 39.1176 29.7955 39.3428C30.5358 39.8754 31.3295 40.1877 32.1537 40.2723L32.1597 40.2176C33.0191 40.3059 33.8858 40.1342 34.6978 39.6987C36.4992 38.7306 37.6515 36.6739 37.6333 34.4578V34.4503C37.643 31.4641 35.5936 28.9332 32.9669 28.6881ZM37.5798 34.4578C37.5981 36.6527 36.4567 38.6908 34.6735 39.6489C34.0122 40.0035 33.3145 40.184 32.5985 40.184C32.4551 40.184 32.3105 40.1765 32.167 40.1616C32.167 40.1616 32.167 40.1616 32.1658 40.1616C32.1634 40.1616 32.1622 40.1616 32.1597 40.1616C31.3563 40.0782 30.5832 39.7721 29.8599 39.2532C29.5633 39.033 29.2862 38.7754 29.037 38.4855C29.0249 38.4706 29.0115 38.4557 28.9993 38.4407C28.986 38.4258 28.9738 38.4096 28.9604 38.3947L28.9458 38.376C28.9361 38.3636 28.9252 38.3511 28.9142 38.3375C28.9106 38.3337 28.9082 38.33 28.9045 38.3238C28.8924 38.3076 28.879 38.2914 28.8656 38.2752C28.8535 38.2603 28.8413 38.2441 28.8292 38.2267C28.727 38.0936 28.6274 37.953 28.5362 37.8074C27.5832 36.3043 27.3182 34.3807 27.8275 32.6598C27.971 32.1571 28.1837 31.6731 28.4572 31.2215C28.4584 31.219 28.4608 31.2165 28.4621 31.214V31.2115H28.4633C28.721 30.7822 29.0297 30.3928 29.3822 30.0556C30.1298 29.3389 31.0366 28.8934 32.0054 28.7653H32.009C32.009 28.7653 32.0102 28.7653 32.0114 28.7653C32.2023 28.7404 32.3968 28.7279 32.5888 28.7279C32.7128 28.7279 32.8392 28.7329 32.962 28.7441C35.5608 28.9867 37.5883 31.4927 37.5786 34.4503V34.4591L37.5798 34.4578Z" fill="#524BE0"/>
<path d="M32.1597 40.2176C31.3587 40.1354 30.5637 39.8268 29.8283 39.298C29.5256 39.0741 29.2473 38.8128 28.9969 38.5216L28.9556 38.5577C29.2096 38.8526 29.4916 39.1176 29.7967 39.3428C30.537 39.8754 31.3307 40.1877 32.1549 40.2723L32.1609 40.2176H32.1597ZM29.3457 30.0158C30.1079 29.2866 31.0281 28.8387 32.0029 28.7105C32.0029 28.7105 32.0053 28.7105 32.0066 28.7105L31.9956 28.6558C31.0037 28.7864 30.0739 29.2431 29.3081 29.9759C28.9483 30.3206 28.6334 30.7163 28.3709 31.1543L28.4171 31.1829C28.6748 30.7524 28.9859 30.3592 29.3445 30.0158H29.3457ZM27.7741 32.6449C27.9211 32.131 28.1375 31.6408 28.4098 31.1928L28.3636 31.1642C28.084 31.6234 27.8689 32.1173 27.7218 32.6287C27.5492 33.2098 27.4617 33.8183 27.4617 34.4367C27.4617 35.6523 27.8105 36.8717 28.4426 37.8671C28.5362 38.0152 28.6371 38.1595 28.7416 38.2951L28.7842 38.2616C28.6796 38.1259 28.5812 37.9853 28.4876 37.8373C27.5249 36.3205 27.2587 34.3807 27.7728 32.6449H27.7741ZM28.6152 38.6174H28.4706L28.5459 38.7095C28.5459 38.7095 28.5496 38.7145 28.552 38.717L28.6322 38.6411L28.6164 38.6162L28.6152 38.6174ZM28.5872 38.6734C28.5872 38.6734 28.5897 38.6771 28.5909 38.6784C28.5897 38.6759 28.5885 38.6747 28.586 38.6734H28.5872ZM28.4718 38.5266C28.4718 38.5266 28.4657 38.5179 28.462 38.5141C28.4742 38.5303 28.4864 38.5465 28.4997 38.5627L28.5423 38.5278L28.5046 38.4793L28.4195 38.549C28.4195 38.549 28.4219 38.5527 28.4244 38.5552C28.4244 38.5564 28.4268 38.5577 28.4268 38.5589C28.4268 38.5589 28.4268 38.5602 28.428 38.5614L28.456 38.5975L28.4985 38.5627C28.4888 38.5502 28.4803 38.539 28.4706 38.5266H28.4718ZM27.9576 42.6762L28.0099 42.6924L28.0621 42.7086L27.9588 42.6737L27.9576 42.6762ZM25.9811 31.7266L26.0237 31.693L26.0662 31.6594L25.9787 31.7254V31.7279L25.9811 31.7266Z" fill="#524BE0"/>
<path d="M36.6524 30.3206C35.9656 29.4471 35.0831 28.8225 34.0998 28.5002C34.4 27.6118 34.6006 26.6413 34.6796 25.6894C34.8169 24.0208 34.5969 22.412 34.0244 20.9064C32.6168 17.2072 29.6156 15.566 28.4852 14.9488C26.6035 13.9198 24.8847 13.6261 24.029 13.5428C22.8353 13.4271 21.8787 13.5652 21.1093 13.6759L21.0473 13.6846C19.7625 13.87 18.4971 14.2085 17.2876 14.6888L16.3711 15.0533L17.3545 15.0372C24.4775 14.9227 30.4434 18.3046 31.5386 23.0777C31.9033 24.6703 31.6918 26.4745 30.9284 28.3061C30.2623 28.3882 29.6278 28.6047 29.0358 28.9506C28.2372 29.4172 27.5431 30.1178 27.0265 30.9751C26.4346 31.9605 26.0991 33.1003 26.0577 34.2736C26.014 35.5104 26.3045 36.7149 26.8977 37.7601C27.5298 38.916 28.5083 39.7882 29.6181 40.2636L29.2388 41.0972V41.142C29.2364 41.2241 29.257 41.305 29.285 41.4158C29.3032 41.4892 29.3263 41.5825 29.3506 41.7019C29.4467 42.1673 29.6132 42.8691 29.7736 43.5484C29.9815 44.4244 30.2623 45.6052 30.2854 45.8889C27.8191 49.7835 25.2214 51.2704 21.6125 50.8586H21.6089C21.5639 50.8536 21.5238 50.8337 21.491 50.8013L21.4861 50.7963C21.2333 50.5562 20.9974 50.2936 20.7859 50.0174C20.4748 49.6006 20.2244 49.195 20.0639 48.8478C21.322 48.7246 23.7908 48.4397 25.9046 46.4812C26.9815 45.594 28.0998 43.7351 28.3721 42.8865C28.3746 42.8815 28.377 42.8753 28.3782 42.8703C28.3855 42.8516 28.3916 42.8367 28.3964 42.8205C28.4365 42.6998 28.3806 42.6215 28.3551 42.5941C28.3357 42.5729 28.2652 42.507 28.1533 42.5331C28.1533 42.5331 28.1509 42.5331 28.1485 42.5331C27.5407 42.8728 26.9329 43.2125 26.3264 43.5509C24.9808 44.0001 23.8175 44.3361 22.9058 44.5787C22.9058 44.5787 20.527 45.2133 18.6429 45.4124C18.4314 45.4348 18.1664 45.4447 17.6389 45.4684C16.5923 45.5144 16.2252 45.4932 15.8241 45.324C15.8241 45.324 15.553 45.2357 15.3367 45.0441C14.1406 43.9889 13.9145 40.7538 13.8172 39.3727C13.7698 38.7008 13.7625 38.6236 13.6823 38.5427L13.6446 38.5042L13.5936 38.4892C12.8837 38.2901 11.9101 37.8397 11.3035 36.8231C11.0179 36.3503 10.8221 35.6597 10.827 35.162C11.487 34.8037 12.5154 34.2239 13.0356 33.3703L13.0466 33.3504C13.545 32.2878 13.8476 29.6686 14.0482 27.9353C14.0798 27.6603 14.109 27.4102 14.1345 27.1937C15.3014 27.9029 16.9849 28.3148 18.2795 28.1879C18.4679 28.1767 18.5068 28.0448 18.5141 28.0037C18.5299 27.9216 18.5104 27.8071 18.3354 27.7263L18.3305 27.7238C17.0761 27.1838 16.5109 26.3526 16.2568 25.7503C16.0818 25.3348 15.9967 24.8881 16.004 24.4675C16.7552 26.3513 18.4132 27.8507 20.3362 28.3173C20.5149 28.3683 20.5939 28.2588 20.6145 28.224C20.6948 28.0859 20.5951 27.9627 20.5489 27.9154C20.2341 27.5956 19.7515 26.9648 19.4744 26.4223L19.4707 26.4148C19.1948 25.9233 18.9687 25.2614 18.835 24.6815C19.1048 25.0598 19.4561 25.555 19.8184 26.0639C20.527 27.0606 21.2588 28.0908 21.6028 28.5686L21.6113 28.5798C22.6481 29.8316 23.1866 31.5076 23.4565 32.6934C23.764 34.0472 23.8138 35.1421 23.781 35.3499L23.7057 35.8327L24.0983 35.554C24.7085 35.121 25.0476 34.4192 25.1072 33.4686C25.1716 32.4209 24.8774 31.2488 24.6185 30.45C24.6185 30.4475 24.6173 30.445 24.6161 30.4425C24.8495 30.7623 25.0695 31.0622 25.2069 31.2538L25.4852 31.637C25.5958 31.7901 25.6748 31.8983 25.704 31.9369C25.7514 32.0028 25.8256 32.0364 25.9021 32.0277C25.9787 32.019 26.0431 31.9692 26.0748 31.8933L26.0796 31.8809C26.0978 31.8286 26.1149 31.7764 26.1307 31.7266C26.1538 31.6532 26.1781 31.5773 26.2121 31.4914C26.2243 31.4603 26.5136 30.7225 27.1687 29.8764C27.9564 28.8598 28.8985 28.1543 29.9693 27.7798C30.1371 27.7213 30.3109 27.6703 30.4847 27.628L30.6051 27.5981L30.6355 27.4749C30.9017 26.37 31.0901 24.6653 30.4726 22.8164C29.8648 20.9947 28.7502 19.9085 28.0853 19.259C27.1128 18.3096 25.9751 17.5195 24.7048 16.9073C23.6728 16.4108 22.5485 16.0301 21.3621 15.775C19.3625 15.3445 17.7811 15.3955 17.3447 15.4216C16.3589 15.4801 14.0494 15.617 11.5539 17.0603C9.93237 17.9985 8.50654 19.3374 7.43201 20.93L7.42107 20.9475C7.39189 21.0022 6.69539 22.3124 6.91662 23.9337C6.94093 24.1104 7.06491 24.1452 7.10259 24.1515C7.16337 24.1614 7.27642 24.1552 7.353 23.9959L7.35543 23.9922C7.67025 23.3066 7.97414 22.794 8.36797 22.2751C9.00856 21.4302 9.69656 20.8691 10.2423 20.5107C9.57865 21.2847 9.09608 22.0524 8.80435 22.8014C8.45671 23.6936 8.37527 24.567 8.56003 25.397C8.77153 26.3414 9.3404 27.2397 10.2071 27.9925C10.917 28.6097 11.8201 29.1261 12.7476 29.4446L12.9518 29.5143L13.0089 29.3028C13.1086 28.9344 13.2994 28.1356 13.4538 27.4923C13.517 27.231 13.5729 26.9959 13.6167 26.813C13.6641 26.854 13.7115 26.8938 13.7552 26.9312C13.7224 27.19 13.6847 27.5147 13.6422 27.883C13.4465 29.5827 13.1499 32.1497 12.6831 33.1563C12.1969 33.9451 11.1686 34.5013 10.5547 34.8348L10.4344 34.8995L10.4259 35.014C10.3797 35.6038 10.6021 36.4548 10.9559 37.0384C11.5989 38.1159 12.6005 38.6199 13.3687 38.8538C13.3821 38.9732 13.3979 39.1885 13.4125 39.3988C13.4623 40.113 13.5462 41.3088 13.7759 42.4572C14.0591 43.872 14.4955 44.8475 15.0717 45.3564C15.3634 45.6139 15.7159 45.7222 15.7159 45.7222C16.0563 45.8541 16.3346 45.874 17.1515 45.8827C17.5417 45.8864 17.9598 45.8877 18.401 45.8827C18.4873 46.2846 18.6125 46.74 18.7973 47.229C19.0659 47.9407 19.3868 48.5255 19.6798 48.9797C19.8937 49.4538 20.2158 49.9291 20.4675 50.2663C20.6936 50.5612 20.9427 50.8386 21.2102 51.0937C21.3086 51.192 21.4375 51.2542 21.5724 51.2667C21.9687 51.3115 22.354 51.3351 22.7272 51.3351C24.1141 51.3351 25.3527 51.0228 26.4868 50.3919C27.9868 49.557 29.3531 48.1386 30.6634 46.0569L30.6902 46.0146L30.695 45.9636C30.7133 45.7583 30.5419 45.0018 30.1711 43.4439C30.0107 42.7683 29.8454 42.0702 29.7505 41.6111C29.725 41.4817 29.6995 41.3847 29.68 41.305C29.6679 41.2552 29.6557 41.208 29.6497 41.1756L30.0009 40.4029C30.4981 40.5697 31.0159 40.6592 31.5362 40.6592C31.7197 40.6592 31.9045 40.648 32.0892 40.6256C32.2582 40.6443 32.4272 40.653 32.5961 40.653C33.3741 40.653 34.1508 40.4577 34.8874 40.062C36.8226 39.023 38.06 36.8194 38.0405 34.4491V34.4441C38.0454 32.9261 37.5519 31.4603 36.6524 30.3143V30.3206ZM27.9576 42.675L28.0609 42.7098L28.0087 42.6936L27.9564 42.6775L27.9576 42.675ZM26.0675 31.6582L26.0249 31.6918L25.9824 31.7254V31.7229L26.0687 31.6569L26.0675 31.6582ZM31.8814 22.9968C31.3429 20.6451 29.6193 18.5149 27.0277 16.9956C25.7295 16.2341 24.2563 15.6481 22.6481 15.2537C21.2819 14.9177 19.8439 14.7273 18.3609 14.685C19.2531 14.3926 20.1697 14.1774 21.0959 14.0442L21.1579 14.0355C21.9091 13.9273 22.8426 13.7916 23.995 13.9036C24.8252 13.9845 26.4905 14.2694 28.3186 15.2686C29.4175 15.8696 32.3336 17.4647 33.695 21.0395C34.8753 24.1415 34.2444 26.9784 33.7594 28.4031C33.4385 28.3048 33.0058 28.2065 32.4892 28.1866C32.0273 28.168 31.631 28.2153 31.3235 28.2762C32.0589 26.4335 32.2521 24.6156 31.8814 22.998V22.9968ZM28.4293 38.5614C28.4293 38.5614 28.4293 38.5614 28.428 38.5589C28.428 38.5589 28.4256 38.5564 28.4256 38.5552C28.4232 38.5514 28.4207 38.549 28.4207 38.549L28.5058 38.4793L28.5435 38.5278L28.501 38.5626L28.4584 38.5975L28.4305 38.5614H28.4293ZM28.552 38.7169C28.552 38.7169 28.5472 38.7119 28.5459 38.7095L28.4706 38.6174H28.6152L28.631 38.641L28.5508 38.7169H28.552ZM37.6345 34.4578C37.6528 36.6738 36.5004 38.7319 34.699 39.6987C33.887 40.1354 33.0204 40.3059 32.161 40.2175L32.1549 40.2723C31.3308 40.1877 30.5382 39.8753 29.7967 39.3428C29.4929 39.1176 29.2096 38.8526 28.9556 38.5577L28.9969 38.5216C28.9835 38.5066 28.9714 38.4917 28.958 38.4768C28.9446 38.4619 28.9325 38.4457 28.9191 38.4307C28.9033 38.4121 28.8887 38.3934 28.8729 38.3748C28.8693 38.3698 28.8656 38.3648 28.862 38.3598C28.8486 38.3436 28.8365 38.3275 28.8231 38.3113C28.8097 38.2951 28.7976 38.2789 28.7854 38.2628L28.7429 38.2964C28.6383 38.1607 28.5374 38.0164 28.4438 37.8683C27.8118 36.8717 27.4629 35.6535 27.4629 34.4379C27.4629 33.8195 27.5504 33.211 27.723 32.6299C27.8701 32.1173 28.0853 31.6246 28.3648 31.1654L28.411 31.194C28.411 31.194 28.4147 31.1866 28.4171 31.1841L28.3709 31.1555C28.6335 30.7175 28.9483 30.3218 29.3081 29.9771C30.0739 29.2443 31.0038 28.7876 31.9957 28.657L32.0066 28.7117C32.3226 28.6707 32.6435 28.662 32.9681 28.6893C35.5949 28.9344 37.6443 31.4641 37.6345 34.4516V34.459V34.4578Z" fill="#524BE0"/>
<path d="M28.6322 38.6422L28.552 38.7179C28.552 38.7179 28.5472 38.713 28.5459 38.7105L28.4706 38.6187H28.6152L28.631 38.6422H28.6322Z" fill="#524BE0"/>
<path d="M28.5932 38.6808C28.5932 38.6808 28.5896 38.6754 28.5861 38.6736C28.5861 38.6736 28.5896 38.679 28.5914 38.6808H28.5932Z" fill="#524BE0"/>
<path d="M21.8447 31.9109V31.8997C21.8447 31.2116 21.8471 30.4327 21.8447 29.9399V29.8864L21.7924 29.8839C21.7535 29.8827 21.7158 29.8802 21.6769 29.8777C21.6198 29.874 21.5615 29.8703 21.5043 29.869C21.4642 29.8678 21.4241 29.8665 21.384 29.8653H21.3281V29.9213C21.3281 30.4028 21.3281 31.1631 21.3281 31.8997V31.9146C21.3281 32.8453 21.3257 33.8084 21.3281 34.2327C21.3184 34.2464 21.3086 34.2601 21.3013 34.27C21.294 34.28 21.2868 34.2887 21.2819 34.2961C20.7398 35.0303 19.8038 35.4023 18.4983 35.4023C18.2102 35.4023 17.9039 35.3836 17.5891 35.3463C16.5012 35.2181 15.5494 34.9133 15.1544 34.7739C15.2091 34.0983 15.2868 33.1638 15.3622 32.2593L15.3646 32.2244C15.4376 31.3534 15.5129 30.4513 15.5689 29.7632L15.5737 29.7097L15.5214 29.7035C15.3719 29.6873 15.2407 29.6699 15.1191 29.6525L15.062 29.6438L15.0571 29.7023C15.0134 30.2348 14.9587 30.898 14.9027 31.5774C14.8967 31.7168 14.8857 31.8549 14.8687 31.993C14.8626 32.0627 14.8565 32.1323 14.8517 32.2008L14.8468 32.253C14.7702 33.1726 14.6912 34.1232 14.6365 34.7914V34.7976C14.6341 34.825 14.6329 34.8461 14.6305 34.866C14.6256 34.9071 14.6207 34.9531 14.6317 35.0091L14.6608 35.1497L14.7921 35.2007C14.8444 35.2206 16.0745 35.6984 17.5319 35.8701C17.8735 35.91 18.2041 35.9311 18.5141 35.9311C18.9748 35.9311 19.4027 35.8863 19.7856 35.798C20.6133 35.6064 21.2564 35.2082 21.6964 34.6134L21.7134 34.5898C21.7584 34.5288 21.8107 34.4591 21.835 34.3783L21.8471 34.3397V34.2986C21.8435 33.9191 21.8447 32.8988 21.8471 31.9109H21.8447Z" fill="#524BE0"/>
<path d="M21.7912 29.9397C21.6952 29.9347 21.5991 29.9273 21.5031 29.9248C21.463 29.9235 21.4241 29.9223 21.384 29.921C21.384 30.4038 21.384 31.1616 21.384 31.8994C21.384 32.8513 21.3816 33.833 21.384 34.2499C21.373 34.2673 21.356 34.2884 21.3451 34.3034C21.3378 34.3133 21.3317 34.322 21.3256 34.3295C20.4748 35.4805 18.8216 35.5477 17.583 35.4008C16.4452 35.2664 15.4546 34.9392 15.096 34.811C15.1507 34.1366 15.2309 33.1798 15.3075 32.2528C15.3816 31.3669 15.457 30.4548 15.5141 29.758C15.3792 29.7431 15.2443 29.7269 15.1094 29.707C15.0522 30.4063 14.9757 31.3246 14.9015 32.218C14.8237 33.1524 14.7435 34.118 14.6888 34.7949V34.8011C14.6864 34.8297 14.6839 34.8521 14.6827 34.872C14.6791 34.9106 14.6742 34.9504 14.6827 34.9977L14.7058 35.1084L14.8091 35.1495C14.8602 35.1694 16.0854 35.6447 17.5356 35.8164C17.8771 35.8562 18.2017 35.8774 18.5117 35.8774C18.9699 35.8774 19.3905 35.8338 19.7722 35.7455C20.5878 35.5564 21.2199 35.1657 21.6514 34.5821C21.6575 34.5746 21.6636 34.5659 21.6696 34.5585C21.7122 34.5012 21.7608 34.4353 21.7827 34.3631L21.7924 34.332V34.2996C21.7888 33.9189 21.7912 32.8936 21.7924 31.9019C21.7924 31.174 21.7936 30.4262 21.7924 29.9422L21.7912 29.9397Z" fill="#524BE0"/>
<path d="M20.4772 38.9696C20.4614 38.9696 20.4444 38.9696 20.4286 38.9659C20.2147 38.9398 20.1016 38.7681 20.0846 38.6076C20.0676 38.4483 20.1429 38.2542 20.3484 38.1833C20.3873 38.1683 20.4286 38.1621 20.4711 38.1621C20.5757 38.1621 20.6802 38.2081 20.7568 38.2878C20.8297 38.3637 20.8698 38.462 20.8674 38.5653V38.5702C20.8686 38.6723 20.8285 38.7718 20.7544 38.849C20.6802 38.9261 20.5781 38.9709 20.4772 38.9709V38.9696Z" fill="#524BE0"/>
<path d="M20.8139 38.569C20.8164 38.7693 20.6304 38.9385 20.4359 38.9111C20.0773 38.8676 20.025 38.3549 20.3666 38.2367C20.5781 38.1583 20.8176 38.3338 20.8139 38.564V38.569Z" fill="#524BE0"/>
<path d="M11.3849 33.8197C11.3314 33.7873 11.25 33.7388 11.171 33.6915L11.1613 33.6853C11.0847 33.6393 11.0069 33.592 10.9631 33.5659L10.9461 33.5547C10.8343 33.4887 10.8027 33.3954 10.7966 33.3294H10.7905L10.7966 33.2672C10.8063 33.1801 10.8562 32.6053 10.9036 32.0541C11.0312 30.5846 11.1102 29.6787 11.1284 29.5717L11.1771 29.2905L11.4469 29.3627C11.5916 29.4013 11.842 29.4759 12.0839 29.5481L12.107 29.5543C12.2905 29.6091 12.4631 29.6601 12.5871 29.6949L12.6394 29.7098L12.502 30.2188L12.4497 30.2038C12.327 30.169 12.1592 30.1192 11.9818 30.067L11.8894 30.0396C11.7921 30.011 11.6961 29.9823 11.6062 29.9562C11.5624 30.4178 11.487 31.3013 11.4177 32.1013C11.374 32.609 11.3424 32.9698 11.3241 33.1702C11.3363 33.1776 11.4335 33.2361 11.4335 33.2361C11.5113 33.2834 11.5891 33.3307 11.6414 33.3618L11.6888 33.3892L11.4311 33.8471L11.3837 33.8197H11.3849Z" fill="#524BE0"/>
<path d="M12.5725 29.7496L12.4643 30.1515C12.3331 30.1141 12.1495 30.0606 11.9562 30.0022C11.8189 29.9611 11.6791 29.92 11.5588 29.8852C11.515 30.3418 11.4263 31.3659 11.3643 32.0963C11.3217 32.5865 11.2865 32.9984 11.2682 33.1999C11.3096 33.2248 11.3582 33.2547 11.408 33.2845C11.4858 33.3318 11.5636 33.3791 11.6171 33.4102L11.4141 33.7711C11.3606 33.74 11.2804 33.6902 11.2002 33.6429C11.12 33.5944 11.0373 33.5446 10.9911 33.5172L10.9765 33.5073C10.8537 33.4351 10.8452 33.3306 10.8525 33.2733C10.8623 33.1887 10.9072 32.6649 10.9595 32.0589C11.0798 30.6753 11.1649 29.6874 11.1844 29.5816L11.2233 29.3601L11.436 29.4173C11.5794 29.4559 11.8298 29.5306 12.0717 29.6015C12.2638 29.6587 12.4461 29.7122 12.575 29.7483L12.5725 29.7496Z" fill="#524BE0"/>
<path d="M28.0594 42.7074L28.0091 42.6918L27.9576 42.6762V42.675L28.0594 42.7074Z" fill="#524BE0"/>
<path d="M26.0662 31.6582L26.0243 31.6923L25.9811 31.7252L25.9799 31.7227L26.0662 31.6582Z" fill="#524BE0"/>
<path d="M38.4635 33.1563C38.4246 33.1513 38.2933 33.119 38.2557 32.946V32.9386C38.235 32.834 38.2058 32.6735 38.1645 32.4993V32.4931C37.9822 31.5972 37.3379 30.1862 36.5016 29.3339L36.498 29.3302C36.2221 29.039 35.9546 28.7951 35.6811 28.5848C35.635 28.5488 35.5572 28.5114 35.4672 28.4691H35.4648C35.2593 28.3696 34.981 28.2352 34.7294 27.9602C34.7051 27.9328 34.6783 27.903 34.6516 27.8706L34.5701 27.7711L34.6139 27.6504C35.0114 26.5529 35.2095 25.4157 35.2022 24.2685C35.1925 22.7206 34.7889 20.3801 32.9158 18.0147C31.8704 16.6958 30.492 15.632 28.9288 14.9376L28.2919 14.6552L28.9726 14.5158C29.3457 14.4399 29.7286 14.4014 30.1127 14.4014C31.1095 14.4014 32.1062 14.654 33.0738 15.1517C34.0876 15.673 35.0624 16.4818 35.6836 17.3179C36.2634 17.6589 37.2054 18.4291 38.1244 19.5788C38.8659 20.5058 39.8395 22.0039 40.2686 23.874C40.3184 23.9997 40.7815 24.7861 41.5084 25.4854C42.0749 26.0303 42.972 26.6786 44.0258 26.6786C44.1535 26.6786 44.2811 26.6687 44.4075 26.65H44.4197C44.433 26.6475 44.4428 26.6475 44.4525 26.6475C44.5874 26.6475 44.6458 26.7222 44.6713 26.7856C44.7065 26.8727 44.6834 26.9735 44.6141 27.0382C44.0988 27.5272 43.1215 28.0996 42.0688 28.0996C42.0117 28.0996 41.9521 28.0983 41.8938 28.0946C41.3845 28.0635 40.9043 27.9005 40.4631 27.6081C40.6029 28.0287 40.6782 28.4579 40.6807 28.8598C40.7025 29.5579 40.4679 30.4139 40.0218 31.2687C39.6341 32.0116 39.1126 32.7009 38.6276 33.1115L38.5535 33.1737L38.4587 33.16L38.4635 33.1563Z" fill="#524BE0"/>
<path d="M44.5826 26.9945C44.0611 27.4897 43.1069 28.041 42.0737 28.041C42.0166 28.041 41.9594 28.0397 41.9023 28.036C41.3468 28.0024 40.8314 27.8095 40.3598 27.4611C40.5336 27.9228 40.6284 28.403 40.6308 28.856C40.6515 29.5453 40.4206 30.3914 39.9781 31.2375C39.594 31.9741 39.0774 32.6572 38.5972 33.0629L38.5413 33.1101L38.4696 33.1002C38.4307 33.0952 38.3359 33.0666 38.3067 32.9322V32.926C38.2873 32.8215 38.2581 32.6622 38.2156 32.4843V32.4793C38.032 31.5759 37.3817 30.1525 36.5381 29.2927L36.5357 29.2902C36.2573 28.9966 35.9887 28.7502 35.7116 28.5387C35.6605 28.4989 35.5791 28.4603 35.4843 28.4155C35.2837 28.3197 35.0102 28.189 34.7659 27.9203C34.7403 27.8917 34.7148 27.863 34.6905 27.8332L34.6297 27.7585L34.6625 27.6677C35.0625 26.564 35.2618 25.4193 35.2545 24.2658C35.2448 22.7093 34.8388 20.3551 32.9559 17.9773C31.9057 16.6521 30.52 15.5821 28.9483 14.884L28.4706 14.6725L28.9811 14.568C30.3109 14.2955 31.7161 14.5132 33.0483 15.1976C34.0609 15.7177 35.0296 16.5227 35.6459 17.3564C36.8238 18.0445 39.4396 20.5032 40.2151 23.8863V23.8888C40.2625 24.0133 40.7244 24.8071 41.4708 25.5226C42.1369 26.1621 43.1871 26.8863 44.416 26.7021H44.427C44.5254 26.6934 44.5911 26.727 44.6215 26.8029C44.6482 26.8689 44.6312 26.9448 44.5789 26.9933L44.5826 26.9945Z" fill="#524BE0"/>
<path d="M26.0882 32.8641C25.9885 32.823 25.8997 32.7645 25.8183 32.7073C25.6737 32.6052 25.529 32.4833 25.3637 32.324C25.3442 32.3054 25.3236 32.2842 25.3005 32.2618C25.2531 32.2145 25.1984 32.1598 25.1534 32.125L25.0294 32.0279L25.1923 32.0242C25.3102 32.0242 25.4208 32.0839 25.501 32.1287C25.777 32.2942 26.0091 32.5256 26.1562 32.7832L26.2364 32.9238L26.0882 32.8616V32.8641Z" fill="#524BE0"/>
<path d="M25.185 32.0811C25.2883 32.0787 25.3868 32.1309 25.4743 32.1794C25.7296 32.3325 25.9581 32.5502 26.1076 32.8128C26.0128 32.773 25.9301 32.7182 25.8475 32.6622C25.687 32.549 25.5412 32.4208 25.4001 32.2852C25.3357 32.2242 25.2555 32.1371 25.185 32.0824V32.0811Z" fill="#524BE0"/>
<path d="M25.8645 33.2397C25.7988 33.2123 25.7417 33.1737 25.6882 33.1376C25.5946 33.0717 25.501 32.9933 25.3941 32.89C25.3819 32.8776 25.3685 32.8639 25.3539 32.8502C25.3236 32.8204 25.2895 32.7855 25.2616 32.7644L25.1376 32.6673L25.298 32.6636C25.3782 32.6636 25.4512 32.7034 25.5047 32.7333C25.687 32.8427 25.8341 32.9896 25.9313 33.16L26.0115 33.3006L25.8633 33.2384L25.8645 33.2397Z" fill="#524BE0"/>
<path d="M25.2932 32.7195C25.3588 32.7183 25.422 32.7519 25.4791 32.7817C25.642 32.88 25.7891 33.0194 25.8851 33.1874C25.8243 33.1625 25.7709 33.1276 25.7186 33.0903C25.6153 33.0181 25.5217 32.936 25.4317 32.8489C25.3904 32.8103 25.3393 32.7544 25.2944 32.7195H25.2932Z" fill="#524BE0"/>
<path d="M32.5962 39.3055C32.3749 39.3055 32.1513 39.2856 31.93 39.2458C30.9272 39.0716 30.0131 38.4743 29.3555 37.5647C28.7307 36.7 28.3867 35.6386 28.3892 34.576C28.3697 33.1202 28.9228 31.7503 29.9062 30.817C30.6562 30.1053 31.6067 29.7134 32.5828 29.7134C32.697 29.7134 32.8125 29.7184 32.9268 29.7296C34.0183 29.8391 35.0114 30.4064 35.7237 31.3284C36.4069 32.2119 36.7813 33.3404 36.7788 34.5063V34.5101C36.8019 35.9683 36.1796 37.3968 35.1123 38.3275C34.3794 38.967 33.5102 39.3055 32.5962 39.3055ZM32.5828 30.1315C31.71 30.1315 30.8579 30.4836 30.1833 31.1231C29.285 31.9755 28.7794 33.2334 28.7964 34.5735C28.7927 36.3939 29.99 38.4843 31.9993 38.8339C32.1962 38.87 32.3968 38.8874 32.5937 38.8874C33.4106 38.8874 34.1897 38.5838 34.8473 38.0102C35.8234 37.1579 36.3923 35.8514 36.3704 34.515V34.5063C36.3777 32.2206 34.8802 30.3455 32.8879 30.1451C32.787 30.1364 32.6837 30.1315 32.5816 30.1315H32.5828Z" fill="#524BE0"/>
<path d="M32.5962 39.2493C32.3786 39.2493 32.1598 39.2294 31.9398 39.1895C30.9515 39.0178 30.0484 38.428 29.3993 37.5309C28.7806 36.6761 28.4414 35.6259 28.4439 34.5758C28.4256 33.1349 28.9714 31.7799 29.9438 30.8579C30.7777 30.0665 31.8364 29.6858 32.9231 29.7853C33.9989 29.8936 34.9786 30.4535 35.6824 31.3631C36.3582 32.2365 36.729 33.3527 36.7253 34.5061V34.5098C36.7484 35.9532 36.1322 37.3642 35.0783 38.285C34.3538 38.9171 33.4908 39.2493 32.5974 39.2493H32.5962ZM32.5828 30.0752C31.693 30.0752 30.8373 30.4261 30.1456 31.0819C29.2352 31.9454 28.7234 33.2183 28.7417 34.5745C28.738 36.4185 29.9523 38.5351 31.9908 38.8897C33.024 39.0763 34.0512 38.7802 34.8838 38.0535C35.872 37.1912 36.4482 35.8686 36.4263 34.5148V34.5061C36.4336 32.1905 34.9154 30.293 32.8952 30.0902C32.7906 30.0802 32.6873 30.0752 32.584 30.0752H32.5828Z" fill="#524BE0"/>
<path d="M30.4555 36.5868L30.1419 36.2794L32.009 34.2911L29.9912 32.8054L30.2453 32.4446L32.6703 34.2301L30.4555 36.5868Z" fill="#524BE0"/>
<path d="M34.968 35.7098L32.4456 36.1418L32.5172 36.58L35.0396 36.1479L34.968 35.7098Z" fill="#524BE0"/>
<path d="M6.36353 18.0285L0.847412 11.3256L3.17153 9.32228L8.48951 12.9543L5.91622 6.95567L8.23911 4.95239L13.7552 11.6565L12.2455 12.958L7.91092 7.68979L10.6872 14.3019L9.41211 15.4006L3.52768 11.4674L7.8623 16.7357L6.36232 18.0285H6.36353Z" fill="#524BE0"/>
<path d="M15.3451 11.4414L13.4635 6.84256L12.3525 7.31912L11.7775 5.91558L14.6973 4.66384L17.1539 10.6662L15.3451 11.4414ZM13.3918 4.05663C13.1 4.18106 12.8059 4.18231 12.5093 4.05663C12.2127 3.93221 12.0036 3.72068 11.8821 3.42205C11.7569 3.11596 11.7556 2.81236 11.8784 2.51373C12.0012 2.21511 12.209 2.00234 12.5008 1.87667C12.7998 1.74851 13.0952 1.74477 13.3857 1.86671C13.6762 1.98865 13.8841 2.20267 14.0105 2.51C14.1332 2.80863 14.1345 3.1085 14.0178 3.41086C13.8999 3.71321 13.692 3.92723 13.3918 4.05663Z" fill="#524BE0"/>
<path d="M20.2487 10.0253C19.709 10.1124 19.2081 10.0515 18.7475 9.84244C18.2868 9.6334 17.899 9.29122 17.5842 8.81467C17.2681 8.33935 17.0566 7.75081 16.9497 7.05029C16.8415 6.351 16.8682 5.7326 17.0275 5.19756C17.1867 4.66253 17.4553 4.22703 17.8322 3.89232C18.209 3.55761 18.6672 3.34608 19.2069 3.25898C19.5534 3.20299 19.9217 3.2341 20.3119 3.35355C20.702 3.473 21.0254 3.69199 21.2831 4.01426L20.8042 0.903574L22.7284 0.59375L23.674 6.73673C23.7239 7.05651 23.7968 7.43477 23.8941 7.87026C23.9913 8.30576 24.1189 8.75494 24.277 9.21657L22.4415 9.5127L22.0549 8.68526C21.8507 9.09961 21.5845 9.41192 21.2588 9.62344C20.9318 9.83497 20.5963 9.96935 20.2499 10.0253H20.2487ZM20.634 8.39659C21.0047 8.33687 21.3062 8.14152 21.5371 7.81303C21.7669 7.48329 21.8313 6.98683 21.7292 6.32114C21.6283 5.66417 21.418 5.21374 21.0995 4.96862C20.7811 4.72349 20.4358 4.63142 20.0639 4.69114C19.6846 4.75211 19.3808 4.96115 19.1547 5.31577C18.9286 5.67163 18.8605 6.14321 18.9505 6.73051C19.0416 7.32652 19.2507 7.76948 19.5765 8.05815C19.9022 8.34682 20.2547 8.46005 20.6352 8.39908L20.634 8.39659Z" fill="#524BE0"/>
<path d="M27.7182 9.88587C27.1347 9.79628 26.6084 9.59097 26.1367 9.27119C25.6651 8.95142 25.3102 8.51468 25.0719 7.95973C24.8337 7.40603 24.7705 6.74408 24.8835 5.97387C24.9978 5.19495 25.247 4.58153 25.6335 4.13234C26.0188 3.68316 26.4832 3.37831 27.0253 3.2178C27.5674 3.05729 28.129 3.02245 28.7125 3.11204C29.2874 3.20038 29.8101 3.40196 30.283 3.718C30.7546 4.03405 31.1107 4.46457 31.3514 5.00956C31.5909 5.55455 31.6541 6.2165 31.5398 6.99542C31.4268 7.76562 31.1776 8.37905 30.7898 8.83694C30.4033 9.29484 29.939 9.6059 29.3956 9.77015C28.8535 9.93439 28.2943 9.97297 27.7194 9.88462L27.7182 9.88587ZM27.9418 8.35541C28.3308 8.41513 28.6748 8.32181 28.9738 8.07669C29.2728 7.83033 29.4722 7.36995 29.5719 6.69555C29.6715 6.01244 29.6095 5.51349 29.3822 5.19993C29.1549 4.88637 28.8571 4.70098 28.4852 4.64374C28.1047 4.58526 27.7619 4.67236 27.4556 4.90379C27.1493 5.13523 26.9463 5.59312 26.8466 6.27623C26.7482 6.95062 26.8089 7.45082 27.0289 7.77682C27.249 8.10282 27.5528 8.29568 27.9418 8.35541Z" fill="#524BE0"/>
<path d="M32.2035 10.6885L33.7959 4.18091L35.4915 5.10789L34.3112 9.46036L37.0632 5.96768L38.692 6.85734L37.3866 11.1414L40.2637 7.71589L41.9716 8.64909L37.575 13.6237L35.6982 12.5972L37.0341 8.03193L34.0815 11.7137L32.2047 10.6872L32.2035 10.6885Z" fill="#524BE0"/>
<path d="M38.6191 14.4673L39.7447 13.3748L44.3735 13.5291L42.2305 11.2148L43.3561 10.1223L47.2191 14.2931L46.0935 15.3856L41.4732 15.2413L43.8545 17.8119L42.7289 18.9044L38.6191 14.4673Z" fill="#524BE0"/>
<path d="M44.647 22.5639L48.1891 21.0483L49.1506 23.4038L48.7215 23.5879L47.9678 21.7426L46.8921 22.203L47.6457 24.0483L47.2166 24.2324L46.463 22.3872L44.856 23.0753L44.6482 22.5651L44.647 22.5639Z" fill="#524BE0"/>
<path d="M45.8856 26.176C45.8261 25.957 45.8236 25.7679 45.8783 25.6099C45.933 25.4519 46.0327 25.3212 46.1774 25.2167C46.322 25.1122 46.4983 25.0313 46.7049 24.9728L48.4601 24.4751L48.589 24.9517L46.9444 25.4183C46.7414 25.4755 46.5906 25.5439 46.4934 25.6248C46.3961 25.7057 46.3378 25.7965 46.3196 25.8973C46.3013 25.9981 46.3074 26.1076 46.339 26.2245C46.3998 26.4473 46.5226 26.6003 46.711 26.6837C46.8982 26.767 47.1376 26.767 47.4294 26.6837L48.9415 26.2557L49.0703 26.7322L46.3171 27.5111L46.2211 27.154L46.587 26.9226C46.4326 26.8815 46.2928 26.8044 46.1676 26.6936C46.0424 26.5829 45.9476 26.4099 45.8844 26.176H45.8856Z" fill="#524BE0"/>
<path d="M46.5384 28.8089C46.5055 28.6272 46.4995 28.4841 46.5177 28.3796C46.5359 28.2751 46.5931 28.1942 46.6879 28.1382C46.7827 28.0822 46.9261 28.0374 47.1194 28.0013L50.1898 27.429L50.2762 27.9155L47.2859 28.4729C47.1425 28.5003 47.0489 28.5326 47.0063 28.5724C46.9626 28.6123 46.9529 28.6994 46.9772 28.835L46.9966 28.9445L46.5785 29.0229L46.5408 28.8089H46.5384Z" fill="#524BE0"/>
<path d="M46.7086 30.0855C46.6867 29.9026 46.6867 29.7595 46.711 29.6549C46.7353 29.5517 46.7961 29.4745 46.8933 29.4235C46.9918 29.3737 47.1376 29.3352 47.3309 29.3103L50.4269 28.9121L50.4877 29.4024L47.4719 29.7906C47.3273 29.8092 47.2325 29.8378 47.1875 29.8752C47.1413 29.9125 47.1279 29.9996 47.1437 30.1352L47.1571 30.246L46.7353 30.3007L46.7086 30.0855Z" fill="#524BE0"/>
<path d="M46.7486 31.5898C46.7389 31.4218 46.7559 31.2538 46.7985 31.0883C46.841 30.9228 46.9115 30.7735 47.0088 30.6404C47.1072 30.5072 47.2336 30.4015 47.3917 30.3256L47.591 30.7909C47.4245 30.8444 47.309 30.9465 47.2421 31.097C47.1765 31.2476 47.1473 31.4044 47.1558 31.5649C47.1619 31.6818 47.1862 31.7913 47.2263 31.8934C47.2665 31.9954 47.3212 32.0775 47.3904 32.1397C47.4597 32.2019 47.5351 32.2318 47.6202 32.2256C47.777 32.2169 47.8839 32.1459 47.9423 32.0153C48.0006 31.8847 48.0408 31.7291 48.0663 31.5512L48.1234 31.1418C48.1465 30.9987 48.1818 30.8656 48.2304 30.7412C48.279 30.6167 48.3531 30.5135 48.4516 30.4338C48.5501 30.353 48.6862 30.3082 48.8588 30.2982C49.0314 30.2882 49.1785 30.3343 49.3013 30.4376C49.424 30.5408 49.5213 30.6752 49.5918 30.842C49.6623 31.0087 49.7036 31.1866 49.7133 31.3745C49.7267 31.6059 49.6915 31.8262 49.61 32.0377C49.5274 32.2492 49.39 32.4035 49.1955 32.5006L49.0035 32.0464C49.1153 31.9892 49.1955 31.8946 49.2441 31.764C49.2928 31.6333 49.3122 31.5002 49.3049 31.3621C49.2964 31.2127 49.2563 31.0796 49.1846 30.9626C49.1129 30.8444 49.0156 30.7897 48.8928 30.7972C48.7701 30.8046 48.685 30.8619 48.6352 30.9689C48.5853 31.0759 48.5501 31.2065 48.5282 31.3608L48.4747 31.7465C48.4528 31.9046 48.4176 32.0564 48.3677 32.2007C48.3179 32.345 48.2401 32.4657 48.1319 32.5628C48.0237 32.6598 47.8694 32.7133 47.6664 32.7258C47.4865 32.7357 47.3309 32.6885 47.1984 32.5827C47.0659 32.4769 46.9601 32.3351 46.8836 32.1596C46.807 31.9829 46.762 31.7938 46.7511 31.5898H46.7486Z" fill="#524BE0"/>
<path d="M46.7997 34.0809C46.8082 33.8968 46.8326 33.7549 46.8739 33.6579C46.9152 33.5608 46.9881 33.4949 47.0927 33.4625C47.1972 33.4302 47.3479 33.419 47.5424 33.4277L49.2928 33.5111L49.3147 33.0171L49.6988 33.0358L49.6769 33.5297L50.3941 33.5633L50.3722 34.0561L49.655 34.0225L49.6295 34.5861L49.2454 34.5675L49.2709 34.0038L47.6008 33.9242C47.4549 33.9167 47.3577 33.9279 47.3066 33.954C47.2556 33.9814 47.2264 34.0648 47.2203 34.2066L47.2082 34.4704L46.7827 34.4505L46.7997 34.0809Z" fill="#524BE0"/>
<path d="M46.5797 35.6822C46.6052 35.4993 46.6611 35.3375 46.7474 35.1957C46.8337 35.0538 46.9431 34.9481 47.0768 34.8759C47.2105 34.805 47.3625 34.7813 47.5339 34.8075C47.7575 34.841 47.9228 34.9468 48.0286 35.1272C48.1343 35.3077 48.2024 35.549 48.2304 35.8526C48.2583 36.1562 48.2656 36.5071 48.2523 36.9053C48.4905 36.9488 48.6813 36.9277 48.8248 36.8418C48.9682 36.756 49.0569 36.5967 49.0898 36.364C49.1141 36.1898 49.0958 36.0405 49.0338 35.9186C48.9719 35.7967 48.8746 35.7096 48.7421 35.6585L48.9451 35.2069C49.1505 35.3164 49.2988 35.4806 49.3888 35.6984C49.48 35.9161 49.5067 36.155 49.4702 36.4151C49.4131 36.8145 49.2794 37.0932 49.0703 37.25C48.86 37.4067 48.5586 37.4565 48.1635 37.398L47.5035 37.2997C47.2689 37.2649 47.0647 37.2437 46.8909 37.2375C46.717 37.2313 46.5627 37.2325 46.4265 37.24L46.4897 36.7921L46.8933 36.7336C46.7656 36.6278 46.6721 36.4885 46.6125 36.318C46.5529 36.1463 46.542 35.9348 46.5772 35.6834L46.5797 35.6822ZM46.9468 35.8439C46.9249 35.9957 46.931 36.1426 46.965 36.2869C46.999 36.4312 47.0732 36.5544 47.1874 36.6589C47.3029 36.7635 47.4694 36.8319 47.6895 36.8642L47.8657 36.8904C47.8767 36.5905 47.8767 36.3292 47.8645 36.1052C47.8511 35.8813 47.8147 35.7046 47.7539 35.5752C47.6931 35.4458 47.5983 35.3711 47.4694 35.3512C47.337 35.3313 47.2227 35.3649 47.1267 35.452C47.0306 35.5391 46.9711 35.6697 46.9455 35.8439H46.9468Z" fill="#524BE0"/>
<path d="M45.9647 38.793C46.0352 38.5242 46.1591 38.309 46.3342 38.146C46.5104 37.983 46.7195 37.8784 46.9614 37.8311C47.2045 37.7839 47.4634 37.7988 47.7418 37.8759C48.0153 37.9518 48.2462 38.075 48.4322 38.2467C48.6194 38.4184 48.747 38.6238 48.8175 38.8614C48.888 39.1003 48.8868 39.3579 48.8139 39.6341C48.747 39.8879 48.6291 40.0883 48.4589 40.2363C48.2888 40.3844 48.1064 40.4802 47.9132 40.5238L47.8731 40.0435C47.9995 40.0136 48.1125 39.9489 48.2098 39.8506C48.307 39.7511 48.3751 39.6304 48.4128 39.486C48.4492 39.3454 48.448 39.2036 48.4091 39.058C48.3702 38.9137 48.2851 38.7818 48.1551 38.6648C48.025 38.5479 47.8439 38.457 47.6105 38.3923C47.3808 38.3289 47.179 38.3152 47.0052 38.35C46.8313 38.3849 46.6915 38.4545 46.5846 38.5566C46.4776 38.6586 46.4071 38.7805 46.3694 38.9211C46.3281 39.0767 46.3269 39.221 46.3646 39.3554C46.4022 39.4898 46.4655 39.6018 46.553 39.6913L46.2819 40.0858C46.1324 39.9302 46.0254 39.7386 45.961 39.5097C45.8966 39.2807 45.8966 39.0406 45.9622 38.7917L45.9647 38.793Z" fill="#524BE0"/>
<path d="M45.6109 40.27L49.1773 41.7221L48.9986 42.1812L46.8897 41.3227L47.6555 42.9004L47.4415 43.4529L46.7438 41.9846L44.7394 42.511L44.9582 41.9485L46.5311 41.5454L46.3184 41.0912L45.4322 40.7304L45.6109 40.2713V40.27Z" fill="#524BE0"/>
</g>
<defs>
<clipPath id="clip0_301_880">
<rect width="49.6402" height="50.8037" fill="white" transform="translate(0.847412 0.59375)"/>
</clipPath>
</defs>
</svg>
